PathFileType	4	(X/Y/Z)	C:/Users/beibeiliu/ov580/test_trc/User1\sequence.7_training_dense_right.trc
DataRate	CameraRate	NumFrames	NumMarkers	Units	OrigDataRate	OrigDataStartFrame	OrigNumFrames
120	120	16	19	mm	120	222	295
Frame#	Time	ThumbCMC			ThumbMCP			ThumbIP			ThumbTip			IndexMCP			IndexPIP			IndexTip			MiddleMCP			MiddlePIP			MiddleTip			RingMCP			RingPIP			RingTip			PinkyMCP			PinkyPIP			PinkyTip			BackHand1			BackHand2			BackHand3	
		X0	Y0	Z0	X1	Y1	Z1	X2	Y2	Z2	X3	Y3	Z3	X4	Y4	Z4	X5	Y5	Z5	X6	Y6	Z6	X7	Y7	Z7	X8	Y8	Z8	X9	Y9	Z9	X10	Y10	Z10	X11	Y11	Z11	X12	Y12	Z12	X13	Y13	Z13	X14	Y14	Z14	X15	Y15	Z15	X16	Y16	Z16	X17	Y17	Z17	X18	Y18	Z18	
221	1.84167	104.146	93.6279	35.083	99.5402	63.0834	11.7233	104.464	49.9699	-12.3604	121.308	35.8854	-35.3486	120.109	110.185	-48.0042	124.503	97.4454	-74.8722	121.079	65.826	-86.6205	143.428	81.7237	-48.2248	133.919	46.8837	-38.3994	132.439	56.4084	-1.82738	163.676	72.1837	-32.6227	153.639	41.1352	-15.4545	141.905	50.4145	12.3144	183.693	69.6937	-17.8695	165.28	49.7433	-6.32453	152.213	63.7824	19.9672	166.273	121.324	8.51677	163.062	127.128	43.6762	131.443	127.641	23.1256	
222	1.85	105.181	94.021	33.1973	101.916	65.9389	12.2551	103.608	49.8587	-17.2572	119.861	34.7675	-33.8754	120.403	110.051	-48.8756	126.302	93.8695	-76.6199	121.99	63.9295	-80.8176	141.961	83.1925	-48.5539	134.94	47.5108	-39.1268	130.918	56.3345	-3.2566	161.718	68.7465	-34.7114	153.585	42.436	-17.4057	143.585	52.85	14.8694	181.603	66.2621	-19.1442	163.8	49.3327	-3.41171	149.085	64.7783	16.9348	169.115	120.701	7.06529	165.203	126.832	39.623	129.8	126.384	19.9572	
223	1.85833	108.472	94.7865	33.2162	102.102	65.4896	6.75192	106.657	51.5829	-12.9488	125.213	35.1318	-37.6372	120.118	110.447	-48.115	122.768	95.5536	-77.2334	121.927	58.7504	-74.4666	141.566	80.117	-50.7983	137.665	47.6825	-37.3709	133.029	58.2348	-3.73764	163.864	66.982	-35.5457	151.3	42.3816	-17.1918	144.381	52.83	15.0066	181.726	72.5575	-18.9114	163.325	49.8414	-3.78705	153.064	67.3524	21.4296	166.359	121.639	6.07951	165.629	129.312	39.1248	131.459	128.789	22.4638	
224	1.86667	105.711	95.2076	32.9691	104.96	66.2239	6.34582	108.604	50.9616	-15.5074	124.75	34.2042	-34.979	122.498	109.797	-49.8014	125.428	92.132	-76.0722	119.544	56.7817	-70.3526	141.902	81.1224	-51.1931	139.923	47.0106	-36.8466	132.684	59.7386	-2.3145	165.818	71.9262	-34.6491	153.721	41.2169	-17.0481	143.543	53.5822	13.0953	181.161	68.7446	-20.3565	163.78	49.7087	-5.26625	152.312	64.0647	19.2293	169.338	119.376	2.82111	167.508	125.849	38.7905	134.273	128.461	21.244	
225	1.875	106.113	94.2485	31.6435	103.307	63.786	9.39878	108.644	49.7189	-16.8211	126.166	34.3614	-34.7759	124.6	110.123	-48.9712	123.176	90.7493	-77.4806	123.007	57.3214	-67.7018	143.204	79.4783	-50.7057	136.045	48.0212	-38.7005	133.395	58.8167	-3.13136	165.083	67.3951	-36.1354	152.115	43.472	-19.8747	149.231	50.7661	13.1162	178.64	68.4414	-22.102	169.165	47.2373	-4.04444	152.968	66.3736	21.7146	165.505	118.382	2.36407	169.706	126.224	38.6774	132.457	128.461	22.3443	
226	1.88333	109.363	94.6496	36.0815	103.395	63.1252	6.49044	107.867	48.861	-14.3849	126.195	33.4013	-36.3088	121.174	109.827	-45.9517	128.416	90.9374	-75.0386	125.382	58.3264	-68.9127	146.553	78.2779	-50.4394	136.628	47.9074	-37.8752	135.314	60.7931	-1.76561	163.676	67.6736	-35.6136	155.3	43.2476	-19.8261	146.813	50.7926	11.1402	182.321	71.9419	-19.8597	167.029	49.6647	-6.30701	152.134	61.9684	19.5938	170.278	120.734	2.82996	166.266	126.893	41.6581	132.464	126.405	21.8908	
227	1.89167	110.131	95.3884	36.635	102.875	63.0185	10.2076	110.596	50.3001	-15.1718	124.577	36.4266	-31.1718	126.443	109.857	-48.6682	128.202	89.4881	-75.8387	125.291	58.0178	-70.8529	147.28	79.6944	-49.882	137.885	48.5624	-38.5999	135.343	59.7026	-2.00286	164.205	68.3214	-34.7811	153.256	42.4565	-19.1017	148.023	51.67	15.4366	181.739	69.5645	-19.4137	166.054	49.0027	-3.65815	154.456	63.1156	21.49	169.622	119.903	5.18007	167.407	127.885	43.2684	136.387	127.944	25.2003	
228	1.9	105.12	94.3196	32.546	101.288	63.6446	11.5655	110.269	50.8334	-14.8215	125.647	34.9217	-33.1993	125.863	109.235	-45.5052	129.038	96.039	-74.269	123.986	59.3519	-80.3807	148.075	82.5454	-47.1733	139.622	49.0773	-39.8301	131.712	58.2321	-1.67303	163.641	72.3113	-33.3698	155.511	41.0462	-16.2026	146.114	50.6139	15.5481	185.648	69.5883	-17.0106	168.788	47.9325	-6.81688	150.179	63.4238	19.0741	168.342	120.722	8.22951	166.557	127.822	42.4554	131.591	128.26	21.2925	
229	1.90833	105.726	93.5124	35.9277	103.291	62.92	14.384	108.046	47.8912	-12.3962	123.648	32.285	-29.2558	123.564	109.414	-45.8631	127.402	97.9208	-74.4275	129.918	64.1591	-89.6894	142.658	82.5744	-46.9453	139.545	46.0605	-36.7613	132.557	57.6284	-0.845796	162.455	67.7147	-34.5142	154.337	40.2993	-15.633	148.782	46.6615	13.4	183.642	65.9897	-17.8007	164.511	50.1963	-3.53433	152.138	65.4695	20.8328	170.039	118.711	4.85367	166.153	128.03	44.6735	131.38	128.08	23.231	
230	1.91667	109.609	93.38	33.8226	106.191	61.2523	11.507	110.943	45.4553	-10.361	129.592	32.9165	-29.918	119.51	108.19	-45.6197	124.759	99.4398	-71.8851	126.667	79.3988	-95.1171	146.24	81.6462	-46.5669	138.737	45.4536	-37.302	133.45	52.3947	-2.22752	162.283	71.0116	-32.6363	156.217	40.6127	-13.9935	147.121	49.5001	16.6413	182.128	67.7308	-17.4546	167.72	49.0861	-0.868071	154.294	63.2125	19.5956	169.9	120.198	9.15933	168.774	128.784	44.9961	130.204	125.702	25.0709	
231	1.925	104.843	90.8868	35.5631	103.593	58.0757	11.3128	108.798	41.8237	-10.0162	130.575	31.2119	-28.3738	115.372	105.766	-46.2722	117.976	98.2678	-75.8804	126.536	87.3259	-99.6541	146.694	79.2413	-45.6218	141.012	44.6912	-34.7275	138.084	52.1125	0.497821	162.58	70.6627	-31.5333	157.318	41.9293	-16.6822	152.289	46.6538	15.5752	186.352	70.5802	-16.0927	169.269	49.5815	1.25822	151.247	65.1874	20.8128	166.154	121.116	7.8622	165.932	130.139	41.0377	131.835	125.975	22.4596	
232	1.93333	107.417	91.6819	37.1151	106.773	58.3404	14.2443	112.785	41.2723	-12.5165	132.86	27.1945	-28.6324	116.879	103.811	-49.5244	118.663	97.1037	-74.0193	123.9	92.2934	-97.3839	146.129	75.7868	-46.7495	143.185	45.0288	-35.9959	138.256	55.577	5.58097	166.756	68.266	-31.4226	156.295	40.8783	-12.3822	149.163	47.7546	17.8317	182.862	70.7826	-16.8813	167.294	50.9591	0.884043	152.979	65.0502	19.8504	167.009	120.963	4.7483	165.818	130.508	45.0041	125.91	125.752	24.4274	
233	1.94167	106.508	90.0927	36.3978	105.153	55.8062	13.288	114.152	39.6903	-12.6796	132.08	24.1039	-27.0714	114.913	101.566	-45.7998	116.328	96.4183	-74.5766	121.581	91.6313	-94.8392	141.828	77.9037	-46.4855	142.012	44.4607	-35.2742	136.062	53.4229	4.97835	165.606	70.0406	-30.9372	161.843	41.6804	-13.895	152.502	47.6361	19.685	184.631	73.8561	-14.4369	169.264	50.9202	3.10194	154.863	65.3698	23.7345	165.411	122.581	9.14845	161.745	131.289	40.4973	129.184	125.232	23.7662	
234	1.95	106.545	88.6393	37.1385	108.162	56.0913	11.7259	115.256	38.2389	-12.1075	135.188	27.6612	-26.8933	116.85	100.579	-50.0199	117.01	94.8397	-73.1785	116.234	90.0369	-97.7815	145.113	78.5732	-44.9623	143.533	44.4078	-36.2202	138.011	53.4692	4.55063	164.934	70.7675	-31.0365	162.183	41.2268	-14.3749	149.554	48.5081	20.4583	186.514	72.0176	-13.8885	169.735	52.4387	-1.43578	153.12	66.438	20.5743	163.807	122.853	6.88548	160.758	130.947	41.1709	128.367	123.851	22.4815	
235	1.95833	105.594	87.5011	33.1982	106.737	54.5556	13.849	114.495	37.0375	-12.4355	133.402	23.4084	-27.6901	111.327	97.5009	-47.5051	110.248	91.8582	-73.0385	118.122	88.1642	-94.1988	143.212	77.3064	-45.641	144.059	42.794	-32.7648	140.155	50.9397	2.42743	165.931	72.7989	-29.5635	163.712	42.0479	-14.1368	153.233	47.3591	17.6959	182.284	75.2787	-15.8747	171.296	51.0081	3.18571	155.915	65.977	22.4534	158.995	122.67	7.85492	158.96	130.744	41.2617	125.791	124.563	21.4277	
236	1.96667	104.167	86.7961	34.071	105.837	53.8375	15.5171	116.001	39.0532	-11.9874	135.956	27.2638	-29.1958	111.751	97.2544	-47.2961	106.847	89.1811	-70.9864	108.297	85.177	-97.6873	142.661	77.1168	-45.4034	143.035	43.7987	-35.8844	141.332	53.6087	5.34938	165.718	69.5566	-30.5496	163.57	41.827	-14.241	152.561	47.0573	16.2002	180.692	72.0761	-17.8535	169.105	53.4497	-0.949427	152.454	70.2384	22.2694	163.158	121.394	6.46907	157.987	129.679	44.027	125.318	122.658	20.7592	
